<?xml version="1.0" encoding="utf-8"?>
<!-- Generator: Adobe Illustrator 28.0.0, SVG Export Plug-In . SVG Version: 6.00 Build 0)  -->
<svg version="1.1" id="icon-0" xmlns:svgjs="http://svgjs.dev/svgjs"
	 xmlns="http://www.w3.org/2000/svg" xmlns:xlink="http://www.w3.org/1999/xlink" x="0px" y="0px" viewBox="0 0 2000 1999"
	 style="enable-background:new 0 0 2000 1999;" xml:space="preserve">
<style type="text/css">
	.st0{fill:#738ADB;}
	.st1{fill:#FFFFFF;}
	.st2{fill:#231F20;}
	.st3{display:none;fill:none;}
</style>
<g transform="matrix(1,0,0,1,-0.431486880466764,-0.4312711370263287)">
	<g id="tight-bounds" transform="matrix(1,0,0,1,0.0740000000000407,0.07400000000001228)">
		<g>
			<g>
				<path d="M0.9,999.4c0-551.7,447.3-999,999-999s999.1,447.3,999.1,999s-447.3,999.1-999.1,999.1S0.9,1551.2,0.9,999.4z
					 M999.9,1976.7c539.7,0,977.2-437.5,977.2-977.2S1539.6,22.3,999.9,22.3S22.7,459.8,22.7,999.5
					C22.7,1539.1,460.2,1976.7,999.9,1976.7z"/>
				<ellipse class="st0" cx="1000.6" cy="1000.1" rx="999.7" ry="999.7"/>
				<ellipse cx="999.9" cy="999.4" rx="959.1" ry="959.1"/>
			</g>
			<g transform="matrix(1,0,0,1,64.84655864529837,91.50419219187881)">
				<g>
					<g>
						<g transform="matrix(1,0,0,1,57.3231987165558,0)">
							<g>
								<g>
									<g>
										<path class="st1" d="M354.4,1164c8.2,0,15-6.8,15-15v-44.4l59.2-71.9L221,987.5l-67.2,87.2l0.9,30.3l48.2,196H252
											l-25.4-196.4h44.6v43.7c0,8.2,6.8,15,15,15s15-6.8,15-15v-43.7h38.5v43.7C339.8,1157.4,346.2,1164,354.4,1164z"/>
										<path class="st1" d="M16.1,673.6c0-21.6,17.6-39.2,39.2-39.2V773L75,909.3L55.3,1027L75,1301.7h49.1v-235.4l85.1-110.7
											l239,52.2h235.4l47.7,98.4l20.7,196.4h49.1v-296c43.2-6.1,81.8-31.2,104.8-68.8l101.7-164.9l78.7,19.7h63.2l22.8,5.9
											c18.6,6.1,39.2,0,51.2-15.5c13.2-16.9,12.9-40.6-0.7-57.3c0,0-71-78-74.7-96.8c-3.8-19-30.3-58.3-30.3-58.3
											c-8.9-12.9-19.7-20.9-33.4-33.8l9.9-6.8c42.8-34.3,13.6-60.1,13.6-60.1s-12.7,29.4-34.3,39.7c-18.6,9.6-36.7,3.8-36.7,3.8
											s34.5-56.4-4.9-66.3c-9.2,52.2-68.4,103.6-68.4,103.6c-28.4-9.9-26.6-40.2-58.5-33.4c-28,5.9-37.4,19-30.5,25.4
											c35.7,33.6,45.6,20,35.7,33.6c-9.9,13.6-76.4,20-76.4,20H530.2l-12.2-49.6l88.6-46.8c36.9-19.5,66-51.2,82.2-89.5
											c17.2-40.4,19-85.8,5.2-127.3l-11.5-34.3v-0.2c-0.9,0-2.1,0.2-3.3,0.2h-10.8c-15.5,0-27.7-12.7-27.7-27.7h10.6
											c0,9.6,7.8,17.2,17.2,17.2h10.8c9.6,0,17.2-7.8,17.2-17.2v-0.2h10.6h10.6c0-8.2-4.9-16-12.7-19.5l-8.2-3.8l-6.6-15.5
											c-4.2-10.6-14.8-17.2-25.8-17.2h-20.7c-4.2,0-7.3,4.7-5.6,8.7l2.1,5.2l0.7,1.2c-16.4,3.8-29.8,16-35.2,32.4l-22.8,72.4
											c-4.9,16-18.6,28-34.8,31.2l-46.3,9.2L400.7,209.4l-8.7,12.9c-19.5,28.4-29.6,62.3-29.6,96.6c0,42.3,15,82.9,42.3,114.9
											l12.9,15.5v31.5l83.6,66l11.7,48.2H55.1c-43.2,0-78.7,35.2-78.7,78.7v333.6h39.2V673.6L16.1,673.6L16.1,673.6z
											 M672.1,197.6c3.3,0,6.1,2.8,6.1,6.1c0,3.3-2.8,6.1-6.1,6.1c-3.3,0-6.1-2.8-6.1-6.1C666,200.4,668.8,197.6,672.1,197.6z
											 M446.1,442.4l37.6-55.7h12.7l-30.8,45.3H510c34.3,0,66.3-16.9,85.3-45.3c11.5-16.9,17.6-36.9,17.6-57.6v-4.9h10.6v4.9
											c0,22.6-6.8,44.6-19.5,63.2c-20.9,31.5-56.2,50-94,50H446.1L446.1,442.4L446.1,442.4z"/>
										<polygon class="st1" points="584,1301.7 632.8,1301.7 683.4,1084.4 659.4,1036.4 618,1036.4 										"/>
										<polygon class="st1" points="1474,1490.4 1501.7,1490.4 1520.5,1458.4 1544.5,1344.2 1466,1371.2 1482.5,1412.6 
											1482.5,1458.4 										"/>
										<polygon class="st1" points="1153,1490.4 1194.6,1386 1113.8,1386 1125.3,1458.4 1125.3,1490.4 										"/>
										<path class="st1" d="M1000.8,1091.6l-46.8-46.8v58.5c0,27,22.1,49.3,49.3,49.3h2.1l-51.5,91.9l-30.8,12.7
											c0-5.2-4.2-9.6-9.6-9.2c-4.9,0.2-8.7,4.7-8.7,9.6v48.4l0,0l0,0l21.4,13.2c50.3,31.5,108.3,48.2,167.1,48.2h108.6
											l33.6,90.7v31.7h27.5l10.8-31.7l9.9-107.8c0.9-9.9-2.3-19.7-9.6-26.8l-17.2-17.2h25.6l7.3,7.3
											c8.9,8.9,13.6,21.4,12.7,33.6l-1.2,20h78c26.3,0,52.2-4.2,76.4-12.7l104.6-35.7l37.6,93.5v46.1l-8,31.7h27.5l21.6-31.7
											l47.2-278.4c5.2-31.2-0.9-62.5-16.9-89.5c11.5-10.6,18.6-25.4,18.6-41.8c0-28.7-21.4-52.4-49.1-56.4v18.6
											c17.6,3.8,30.5,19,30.5,37.6c0,10.6-4.2,20-11,26.8l-8.2-10.1c-24.9-25.6-59-37.6-94.9-39.7
											c-205.4-12.7-502.6,90.9-502.6,90.9L1000.8,1091.6z M1031.8,1233.1h-16.7v-17.2l33.4,4.9L1031.8,1233.1z"/>
									</g>
								</g>
							</g>
						</g>
						<polyline class="st2" points="1158.4,650.6 1141.9,638.6 1175.1,633.7 1175.1,650.6 1158.4,650.6 						"/>
					</g>
				</g>
			</g>
		</g>
		<rect x="0.9" y="0.4" class="st3" width="1998.1" height="1998.1"/>
	</g>
</g>
</svg>
